<?xml version="1.0" encoding="UTF-8"?>
<svg id="Capa_2" data-name="Capa 2" xmlns="http://www.w3.org/2000/svg" viewBox="0 0 140.37 142.79">
  <defs>
    <style>
      .cls-1 {
        fill: #fc354c;
        stroke-width: 0px;
      }
    </style>
  </defs>
  <g id="Capa_1-2" data-name="Capa 1">
    <path class="cls-1" d="M0,71.34C.14,37.55,23.35,8.39,56.33,1.51c20.99-4.37,40.04.86,56.68,14.18,15.3,12.25,24.53,28.35,26.8,47.78,4.8,40.9-22.8,71.85-57.75,78.16C40.27,149.18,5.32,118.8.71,81.47c-.41-3.35-.48-6.75-.71-10.13ZM94.39,66.04c.93.77,1.61,1.3,2.25,1.87,5.81,5.24,8.38,11.78,7.14,19.51-1.82,11.35-13.05,19.77-24.51,18.66-6.73-.65-10.67-4.4-11.4-11.09-.4-3.76-.55-7.54-.71-11.32-.12-2.75.97-3.82,3.79-3.91,2.68-.08,5.36-.1,8.04-.12,3.85-.02,6.15,1.66,6.28,4.54.12,2.91-1.57,4.21-5.85,4.48-2.25.14-3.29,1.21-3.33,3.41-.06,3.13,1.82,5.4,4.96,5.42,6.68.04,15.28-5.5,13.8-14.98-1.08-6.93-6.85-11.51-14.3-11.51-3.15,0-6.3.16-9.45.22-3.64.07-4.57-.82-4.74-4.53-.26-5.51-.5-11.02-.78-16.52-.19-3.64.95-4.83,4.63-4.83,1.8,0,3.64.11,5.4-.19,2.92-.5,3.9-3.59,1.84-5.74-.77-.8-1.9-1.45-2.99-1.74-5.39-1.47-10.81-2.81-16.23-4.17-.41-.1-.86-.01-1.5-.01.18,2.99.38,5.81.51,8.63.82,17.55,1.58,35.1,2.46,52.64.62,12.38,8.48,19.82,20.86,19.38,11.75-.41,21.17-5.69,28-15.23,7.26-10.15,6.91-23.96-2.56-33.25-.38-.37-.68-.82-1.05-1.26.31-.39.54-.71.79-1,10.99-12.65,10.48-31.16-1.33-43.04-8.12-8.17-18.31-11.7-29.56-12.5-3.32-.24-6.68-.04-10.02-.04-.02.32-.05.64-.07.96,1.71.46,3.42.93,5.13,1.37,7.33,1.85,14.7,3.54,21.23,7.64,12.32,7.74,18.15,23.36,13.44,36.08-1.9,5.14-5.43,8.96-10.18,12.17ZM97.58,127.87c-.74-.57-.97-.77-1.22-.93-5.77-3.54-12.09-4.55-18.77-4.47-10.86.13-18.49-5.28-23.57-14.59-2.88-5.29-3.02-11.17-3.31-16.99-.96-19.03-1.93-38.06-2.82-57.09-.1-2.19-1.14-3.15-3.06-3.87-2.85-1.07-5.58-2.47-8.37-3.69-1.65-.72-3.29-1.52-5-2.05-3.93-1.21-7.52.21-10.17,4.17,2.86,1.08,5.61,2.15,8.39,3.16,6.8,2.47,10.53,7.45,11,14.51.86,12.8,1.37,25.63,2.01,38.44.33,6.53.28,13.1,1.04,19.57,1.32,11.29,8.23,18.67,18.45,22.53,7.23,2.73,14.96,4.17,22.47,6.16.36.1.82.14,1.15,0,3.82-1.55,7.62-3.14,11.8-4.87ZM55.11,133.16c-9.92-5.45-17.03-13.18-19.3-24.4-1.19-5.89-1.27-12.03-1.61-18.07-.79-14.07-1.48-28.15-2.09-42.24-.18-4.21-1.83-7.38-5.79-8.89-4.3-1.64-8.74-2.93-13.16-4.39-.69,1.2-1.26,2.05-1.69,2.97-1.46,3.1-.94,4.35,2.31,5.45,1.71.58,3.46,1.02,5.18,1.58,3.54,1.14,5.44,3.51,5.55,7.31.13,4.41.37,8.81.57,13.22.65,14.16,1.27,28.32,1.99,42.48.24,4.64,1.47,9.07,4.54,12.67,6.17,7.22,14.48,10.49,23.48,12.32ZM74.82,54.29c0,1.82-.06,3.39.01,4.95.1,2.15,1.29,3.16,3.45,3.37,9.12.85,17.77-6.17,18.72-15.26,1.21-11.67-5.5-21.85-17.16-25.26-11.39-3.33-22.89-6.28-34.39-9.22-1.45-.37-3.34-.06-4.72.58-3.05,1.41-3.14,3.89-.3,5.69,1.37.86,2.97,1.45,4.54,1.88,10.61,2.9,21.25,5.71,31.86,8.6,4.33,1.18,7.55,3.75,9.49,7.86,3.69,7.8-.47,15.43-9,16.49-.77.1-1.54.2-2.51.32ZM122.18,40.91c0,1.29-.01,1.9,0,2.52.25,12.36.68,24.72.72,37.08.05,16.29-7.49,28.2-21.63,36.07-.77.43-1.54.87-2.56,1.44,2.02,1.17,3.78,2.06,5.39,3.16,1.47,1,2.75.93,4-.23,3.73-3.47,8.02-6.53,11.04-10.54,11.2-14.83,15.11-31.6,11.74-49.93-1.28-6.95-3.89-13.4-8.7-19.58ZM18.14,103.76c-.19-3.5-.4-7-.57-10.5-.62-12.58-1.26-25.15-1.81-37.73-.09-2.05-1.11-3.05-2.94-3.34-1.81-.29-2.09,1.29-2.29,2.42-.82,4.71-1.89,9.43-2.1,14.18-.55,12.57,2.64,24.28,9.71,34.98Z"/>
  </g>
</svg>