<?xml version="1.0" encoding="UTF-8"?>
<svg id="Capa_1" data-name="Capa 1" xmlns="http://www.w3.org/2000/svg" viewBox="0 0 646.18 487.2">
  <defs>
    <style>
      .cls-1 {
        fill: #fff;
        stroke-width: 0px;
      }
    </style>
  </defs>
  <path class="cls-1" d="M124.42,435.49c7.23-10.38,14.12-19.48,20.17-29.11,29.64-47.25,59.15-94.58,88.53-141.99,30.34-48.94,60.51-97.98,90.63-147.07,1.98-3.23,3.96-4.4,7.8-4.38,23.82.09,47.65-.16,71.47-.29,1.76,0,3.53,0,6.76,0-4.59,6.73-8.47,12.21-12.13,17.83-24.7,38-49.76,75.78-73.95,114.11-44.2,70.04-87.84,140.45-131.85,210.61-6.25,9.97-13.22,19.51-20.15,29.03-1.11,1.53-3.79,2.68-5.76,2.71-13.33.23-26.66.14-39.99.12-10.17-.02-11.17-.99-11.18-11.06-.02-112.47-.03-224.95-.04-337.42,0-7.6,0-15.19,0-23.8-21.33,19.69-41.7,38.49-62.74,57.92-17.73-20.7-34.85-40.67-52-60.69,6.88-6.42,13.5-12.67,20.21-18.83,24.4-22.39,48.88-44.69,73.23-67.14,7.95-7.33,15.85-14.75,23.26-22.61,3.65-3.87,8.03-3.16,12.02-3.21C152.22-.08,175.71.16,199.21,0c4.69-.03,3.94,2.89,3.94,5.64,0,46.99,0,93.98,0,140.97,0,39.66.03,79.32-.09,118.97,0,2.53-.69,5.28-1.81,7.55-19.42,39.43-39.11,78.73-58.4,118.23-6.61,13.53-12.32,27.51-18.41,41.29-.17.39-.02.92-.02,2.83Z"/>
  <path class="cls-1" d="M468.41,297.81c-26.07,21.79-52.14,43.59-79.25,66.25,0-13.85.49-26.29-.19-38.66-.39-7.06,2.14-11,7.72-14.97,15.15-10.77,29.78-22.29,44.6-33.52.49-.37.86-.91,1.64-1.75-5.62-4.2-11-8.34-16.49-12.31-9.7-7.01-19.4-14.02-29.26-20.8-3.76-2.59-5.36-5.54-5.23-10.26.35-12.93.12-25.88.12-39.62,31.3,25.16,61.9,49.76,93,74.76,5.58-11.93,10.77-22.96,15.9-34.03,17.21-37.13,34.47-74.24,51.49-111.45,2.5-5.47,5.52-7.61,11.88-7.58,25.31.15,50.62-.49,75.94-.79,6.35-.07,7.15,1.28,4.47,6.94-31.52,66.5-62.94,133.06-94.6,199.49-19.83,41.61-40.01,83.05-60.11,124.53-4.05,8.35-8.72,16.41-12.61,24.84-6.01,13.01-16.92,17.86-30.15,18.07-24.16.37-48.33.26-72.49.06-13.14-.11-23.6-5.38-30.83-16.89-21.01-33.46-42.22-66.79-63.42-100.13-1.67-2.63-1.41-4.65.17-7.28,12.13-20.2,24.09-40.51,36.13-60.76,1.18-1.99,2.31-4.08,3.82-5.81,3.91-4.45,8.02-3.92,10.95.99,20.9,35.07,41.8,70.14,62.86,105.12,2.72,4.51,6.35,8.48,9.68,12.85,8.15-3.55,12.7-10.03,16.26-17.18,16.17-32.51,32.15-65.11,48.2-97.68.27-.54.46-1.12.68-1.68-.28-.25-.57-.5-.85-.74Z"/>
</svg>